<svg xmlns="http://www.w3.org/2000/svg" width="122.93" height="33.775" viewBox="0 0 122.93 33.775">
  <g id="Group_2228" data-name="Group 2228" transform="translate(-4105.461 1491.453)">
    <path id="Path_1072" data-name="Path 1072" d="M-.01-2.142H.481C1.138.941,3.4,5.22,7.085,5.219c2.346,0,3.742-1.636,3.74-4.037C10.822-5.2-.065-2.142-.068-8.691c0-3.6,2.4-5.868,6-5.87,2.756,0,3.629,1.472,4.857,1.471.819,0,.873-.71.873-1.064h.491l0,6.139h-.49c-.684-2.893-2.213-6.244-5.651-6.243a3.569,3.569,0,0,0-3.627,3.681c0,4.9,11.053,3.021,11.056,9.406,0,4.618-2.4,6.69-6.247,6.691-2.374,0-4.612-1.416-5.7-1.416A.929.929,0,0,0,.485,5.117H-.007Z" transform="translate(4105.529 -1471.362)" fill="#fff"/>
    <path id="Path_1073" data-name="Path 1073" d="M0-2.692H2.25l-.007-14.4-2.251,0v-.322H2.311c1.4,0,3.256,0,3.973-.89L6.291-2.694l2.252,0v.322L0-2.37Z" transform="translate(4119.196 -1464.348)" fill="#fff"/>
    <path id="Path_1074" data-name="Path 1074" d="M0-2.692H2.25l-.007-14.4-2.251,0v-.322h2.32c1.4,0,3.256,0,3.972-.89l0,3.657h.068a6,6,0,0,1,5.466-3.181c2.511,0,4.145,1.6,4.147,5.295l0,9.831h2.252v.321l-8.134,0V-2.7h1.841l-.006-11.095c0-2.392-1.027-2.8-2.018-2.8-1.914,0-3.622,2.5-3.621,4.24l0,9.659H8.2v.322l-8.2,0Z" transform="translate(4128.383 -1464.353)" fill="#fff"/>
    <path id="Path_1075" data-name="Path 1075" d="M-1.661-2.3C.925-2.3,3.33.108,3.331,1.776c0,4.17-3.107,7.385-7.857,7.386-3.8,0-6.77-1.945-6.771-4.474,0-1.641,1.758-3.009,3.124-3.386l-.186-.067a3.249,3.249,0,0,1-2.224-3.417A3.736,3.736,0,0,1-7.166-6.114v-.068A4.44,4.44,0,0,1-10-10.351c0-3.111,3.073-4.991,5.944-4.993A7.06,7.06,0,0,1,.212-14.116a4.173,4.173,0,0,1,2.631-1.505c1.025,0,2.324.614,2.325,1.811A1.657,1.657,0,0,1,3.46-12.067a1.524,1.524,0,0,1-1.573-1.571,1.487,1.487,0,0,1,.922-1.5v-.068A3.425,3.425,0,0,0,.467-13.805a5.347,5.347,0,0,1,1.56,3.585C2.027-6.973-1.116-5.3-4.056-5.3a4.333,4.333,0,0,1-1.4-.2,6.915,6.915,0,0,0-1.128-.2c-1.463-.146-2.787.422-2.767,1.778C-9.34-3-8.191-2.294-7.336-2.295Zm-6.15,3.634A4.194,4.194,0,0,0-9.246,4.825a4.706,4.706,0,0,0,4.821,4.1c3.453,0,6.527-2.7,6.526-5.2C2.1,1.64.971,1.333-2.446,1.334Zm6.617-11.692C-1.232-14.286-2.42-15.1-4.026-15.1c-1.777,0-2.76,1.88-2.758,4.648,0,4.1,1.4,4.919,2.763,4.918,1.231,0,2.794-.614,2.827-4.818" transform="translate(4157.994 -1466.841)" fill="#fff"/>
    <path id="Path_1076" data-name="Path 1076" d="M0-4.206H2.249L2.238-27.25H-.013v-.321H2.032c2.427,0,3.632,0,4.246-1.028L6.29-4.209l2.251,0v.321L0-3.885Z" transform="translate(4161.85 -1462.855)" fill="#fff"/>
    <path id="Path_1077" data-name="Path 1077" d="M-.744-1.238l0,2.871C-.742,3.957.412,7,3.59,7c2.883,0,5-2.609,5.663-5.538H9.6C8.853,4.842,6.77,7.44,2.565,7.442A7.493,7.493,0,0,1-5.06-.313a7.815,7.815,0,0,1,7.515-8.1C6.044-8.487,9.464-4.935,9.5-1.243Zm5.928-.369,0-3.375A3.013,3.013,0,0,0,2.216-8.176,3.035,3.035,0,0,0-.746-4.98l0,3.376Z" transform="translate(4174.936 -1473.779)" fill="#fff"/>
    <path id="Path_1078" data-name="Path 1078" d="M-3.3-.709q-4.77,5.672-9.6,11.225t-9.548,11.2h1.613q.572-.729,1.311-1.639t1.546-1.886q.806-.975,1.621-1.938t1.54-1.8q.723-.833,1.3-1.482t.886-.989q.4-.416,1.021-1.132t1.37-1.548q.748-.832,1.592-1.678t1.667-1.534A10.825,10.825,0,0,1-5.408,4.975a2.806,2.806,0,0,1,1.353-.429.665.665,0,0,1,.566.273q.2.274.009,1.184a5.465,5.465,0,0,1-.444,1.236,10.918,10.918,0,0,1-.742,1.287A13.865,13.865,0,0,1-5.556,9.71a10.556,10.556,0,0,1-.891.949q-.583.052-1.441.17a13.182,13.182,0,0,0-1.672.338,5.691,5.691,0,0,0-1.425.585,1.413,1.413,0,0,0-.727.911.545.545,0,0,0,.216.637,1.236,1.236,0,0,0,.674.2,3.834,3.834,0,0,0,1.442-.3,10.3,10.3,0,0,0,1.455-.728q.716-.429,1.375-.9t1.173-.807q.683-.156,1.445-.312a9.043,9.043,0,0,0,1.706-.559A12.874,12.874,0,0,0-.1,8.682a20.51,20.51,0,0,0,2.66-2.237l-.186-.1A16.79,16.79,0,0,1-1.249,9.15a11.866,11.866,0,0,1-3.666,1.275l-.041-.052q.473-.39.947-.845a9.116,9.116,0,0,0,.887-.989A7.292,7.292,0,0,0-2.4,7.395a5.179,5.179,0,0,0,.455-1.288,1.566,1.566,0,0,0-.246-1.535A1.859,1.859,0,0,0-3.5,4.13,3.642,3.642,0,0,0-5,4.481a7.886,7.886,0,0,0-1.488.884A15.828,15.828,0,0,0-7.855,6.51q-.651.612-1.151,1.131l-.041-.052q1.806-2.133,3.72-4.162T-1.586-.709Zm-7.576,13.736a.43.43,0,0,1-.135-.468,1.1,1.1,0,0,1,.587-.741,4.43,4.43,0,0,1,1.132-.43,12.768,12.768,0,0,1,1.327-.246q.682-.091,1.141-.17l.041.052q-.194.183-.636.547T-8.4,12.3a8.354,8.354,0,0,1-1.07.624,2.2,2.2,0,0,1-.926.26.769.769,0,0,1-.487-.156M11.54-4.819Q8.862-1.645,6.828.709T3.3,4.767Q1.8,6.471.788,7.641T-.87,9.632a10.5,10.5,0,0,0-.962,1.4,4.187,4.187,0,0,0-.436,1.131,1.144,1.144,0,0,0,.147.963,1.294,1.294,0,0,0,1.08.364,4.008,4.008,0,0,0,1.795-.547,18.084,18.084,0,0,0,2.568-1.743q1.157-.911,2.46-2.146T8.3,6.5l-.264-.1Q6.75,7.8,5.448,9.033a32.679,32.679,0,0,1-2.5,2.16A16.593,16.593,0,0,1,.764,12.65a3.646,3.646,0,0,1-1.635.533q-.572,0-.434-.651a2.615,2.615,0,0,1,.329-.754,11.627,11.627,0,0,1,.866-1.2q.6-.755,1.635-1.938t2.642-3Q5.776,3.818,8.038,1.256t5.323-6.075ZM9.671,4.338Q8.31,5.846,7.19,7.017T5.246,9.125a17.533,17.533,0,0,0-1.335,1.69,4.071,4.071,0,0,0-.65,1.4,1.058,1.058,0,0,0,.173.9,1.338,1.338,0,0,0,1.116.377,3.487,3.487,0,0,0,1.265-.26,8.267,8.267,0,0,0,1.356-.689,15.109,15.109,0,0,0,1.41-1q.72-.572,1.4-1.2l.041.052a5.657,5.657,0,0,0-.377.612,3.551,3.551,0,0,0-.382,1,1.2,1.2,0,0,0,.2,1.08,1.331,1.331,0,0,0,1.071.4,3.448,3.448,0,0,0,1.478-.4,13.259,13.259,0,0,0,1.727-1.028,19.5,19.5,0,0,0,1.8-1.418q.9-.793,1.71-1.561t1.481-1.457Q19.394,6.94,19.8,6.5l-.244-.078q-.375.416-1.035,1.08T17.062,8.917q-.8.755-1.676,1.522t-1.737,1.379a12.236,12.236,0,0,1-1.615.989,3,3,0,0,1-1.277.377.509.509,0,0,1-.473-.221.707.707,0,0,1-.068-.534,3.135,3.135,0,0,1,.478-1.027,15.357,15.357,0,0,1,1.195-1.522q.81-.937,2.07-2.276l3.075-3.265h-1.8l-3.03,3.486q-.244.287-.726.78t-1.114,1.08q-.631.585-1.344,1.183T7.6,11.96a10.13,10.13,0,0,1-1.368.807,2.72,2.72,0,0,1-1.145.312.625.625,0,0,1-.5-.2.7.7,0,0,1-.078-.612,3.452,3.452,0,0,1,.687-1.209q.592-.766,1.542-1.808T8.879,6.965q1.2-1.249,2.509-2.627ZM28.228,6.5q-.934,1.093-2.112,2.224A23.47,23.47,0,0,1,23.632,10.8a16.592,16.592,0,0,1-2.723,1.613,8.979,8.979,0,0,1-2.854.82l-.041-.052a3.366,3.366,0,0,0,1-.339,4.932,4.932,0,0,0,.955-.637,4.348,4.348,0,0,0,.762-.832,2.6,2.6,0,0,0,.423-.949A3.477,3.477,0,0,0,21.215,9.2q-.079-.546-.2-1.066A8.944,8.944,0,0,1,20.778,7.1,2.951,2.951,0,0,1,20.816,6a2.148,2.148,0,0,1,.6-1.105,1.653,1.653,0,0,1,1.215-.455.972.972,0,0,1,.85.351,1.063,1.063,0,0,1,.14.871,3.161,3.161,0,0,1-.275.742,4.548,4.548,0,0,1-.42.689,2.47,2.47,0,0,0,1.2-.312,1.4,1.4,0,0,0,.717-.989,1.144,1.144,0,0,0-.393-1.209,2.452,2.452,0,0,0-1.594-.455,3.937,3.937,0,0,0-2.154.65,3.113,3.113,0,0,0-.8.768,2.645,2.645,0,0,0-.473,1.977q.074.508.172,1.028t.153,1.053a3.269,3.269,0,0,1-.049,1.028,4.012,4.012,0,0,1-.328.937,3.118,3.118,0,0,1-.577.82,2.951,2.951,0,0,1-.8.572,2.227,2.227,0,0,1-1,.221,2.312,2.312,0,0,1-1.452-.455,1.252,1.252,0,0,1-.4-1.366,2.179,2.179,0,0,1,.235-.612,1.1,1.1,0,0,1,.487-.455.576.576,0,0,0,.138.391.53.53,0,0,0,.422.156.781.781,0,0,0,.6-.26,1.317,1.317,0,0,0,.315-.624.588.588,0,0,0-.123-.585.833.833,0,0,0-.6-.2,1.816,1.816,0,0,0-1.313.546,2.393,2.393,0,0,0-.7,1.223,2.281,2.281,0,0,0,.007,1.132,1.735,1.735,0,0,0,.482.793,2.144,2.144,0,0,0,.85.468,3.9,3.9,0,0,0,1.138.156,8.8,8.8,0,0,0,3.212-.612,14.534,14.534,0,0,0,3.007-1.6A21.946,21.946,0,0,0,26.032,9.06a31.3,31.3,0,0,0,2.336-2.485Z" transform="translate(4200.023 -1481.068)" fill="#fff"/>
  </g>
</svg>
